# xmcd
#
# Track frame offsets:
#	150
#	13388
#	35110
#	47811
#	62515
#	78242
#	94426
#	109998
#	121893
#	139490
#	154985
#	169061
#	180338
#	195561
#
# Disc length: 2756 seconds
# Revision: 0
# Processed by: cddbd v1.5.2PL0 Copyright (c) Steve Scherf et al.
# Submitted via: dBpowerAMP V12.0
#
DISCID=c50ac20e
DTITLE=Half the Sky - Naked as Moonlight
DYEAR=1998
DGENRE=Country
TTITLE0=The Warmth of Your Love
TTITLE1=By the River
TTITLE2=How Seasons Change
TTITLE3=Siren
TTITLE4=Roseville Fair
TTITLE5=My Irene
TTITLE6=Angry Lovers
TTITLE7=Better Kind of Bad
TTITLE8=Time Touches One and All
TTITLE9=I'm Leaving on Wednesday
TTITLE10=Kilgore and Billy Jean
TTITLE11=Going Forever
TTITLE12=Through the Night
TTITLE13=While I Make Love With You
EXTD=
EXTT0=
EXTT1=
EXTT2=
EXTT3=
EXTT4=
EXTT5=
EXTT6=
EXTT7=
EXTT8=
EXTT9=
EXTT10=
EXTT11=
EXTT12=
EXTT13=
PLAYORDER=
